<svg xmlns="http://www.w3.org/2000/svg" version="1.1" xmlns:xlink="http://www.w3.org/1999/xlink" xmlns:svgjs="http://svgjs.dev/svgjs" width="1000" height="1000"><g clip-path="url(#SvgjsClipPath1289)"><rect width="1000" height="1000" fill="#ffffff"></rect><g transform="matrix(1.9999966500056112,0,0,1.9999966500056112,100.00130999780572,100)"><svg xmlns="http://www.w3.org/2000/svg" version="1.1" xmlns:xlink="http://www.w3.org/1999/xlink" xmlns:svgjs="http://svgjs.dev/svgjs" width="399.99936" height="400.00067"><svg id="svg908" viewBox="0 0 399.99936 400.00067" version="1.1" sodipodi:docname="tehranaihub_logo.svg" inkscape:version="1.4 (e7c3feb1, 2024-10-09)" width="399.99936" height="400.00067" xmlns:inkscape="http://www.inkscape.org/namespaces/inkscape" xmlns:sodipodi="http://sodipodi.sourceforge.net/DTD/sodipodi-0.dtd" xmlns="http://www.w3.org/2000/svg" xmlns:svg="http://www.w3.org/2000/svg">
  <sodipodi:namedview id="namedview187" pagecolor="#ffffff" bordercolor="#666666" borderopacity="1.0" inkscape:pageshadow="2" inkscape:pageopacity="0.0" inkscape:pagecheckerboard="0" showgrid="false" inkscape:zoom="1.5346317" inkscape:cx="109.14671" inkscape:cy="177.24122" inkscape:window-width="2048" inkscape:window-height="1139" inkscape:window-x="0" inkscape:window-y="25" inkscape:window-maximized="1" inkscape:current-layer="layer1" inkscape:showpageshadow="2" inkscape:deskcolor="#d1d1d1" inkscape:clip-to-page="false"></sodipodi:namedview>
  <defs id="defs79">
    <style id="style2">
      .cls-1 {
        fill-rule: evenodd;
      }

      .cls-1, .cls-2, .cls-3, .cls-4 {
        stroke-width: 0px;
      }

      .cls-1, .cls-4 {
        fill: #0baedd;
      }

      .cls-5 {
        clip-path: url(#clippath-20);
      }

      .cls-6 {
        clip-path: url(#clippath-11);
      }

      .cls-7 {
        clip-path: url(#clippath-16);
      }

      .cls-8 {
        stroke-miterlimit: 11.34;
        stroke-width: 4.23px;
      }

      .cls-8, .cls-9, .cls-10 {
        stroke: #0baedd;
      }

      .cls-8, .cls-3 {
        fill: #fff;
      }

      .cls-11 {
        clip-path: url(#clippath-2);
      }

      .cls-12 {
        clip-path: url(#clippath-13);
      }

      .cls-13 {
        clip-path: url(#clippath-15);
      }

      .cls-14 {
        clip-path: url(#clippath-6);
      }

      .cls-9 {
        stroke-width: 3px;
      }

      .cls-9, .cls-2, .cls-10, .cls-15 {
        fill: none;
      }

      .cls-9, .cls-10, .cls-15 {
        stroke-miterlimit: 8;
      }

      .cls-16 {
        clip-path: url(#clippath-7);
      }

      .cls-17 {
        clip-path: url(#clippath-21);
      }

      .cls-18 {
        clip-path: url(#clippath-1);
      }

      .cls-19 {
        clip-path: url(#clippath-4);
      }

      .cls-20 {
        clip-path: url(#clippath-12);
      }

      .cls-21 {
        clip-path: url(#clippath-24);
      }

      .cls-22 {
        clip-path: url(#clippath-22);
      }

      .cls-10 {
        stroke-width: 4.5px;
      }

      .cls-23 {
        clip-path: url(#clippath-9);
      }

      .cls-24 {
        clip-path: url(#clippath);
      }

      .cls-15 {
        stroke: #fff;
        stroke-width: 1.5px;
      }

      .cls-25 {
        clip-path: url(#clippath-19);
      }

      .cls-26 {
        clip-path: url(#clippath-3);
      }

      .cls-27 {
        clip-path: url(#clippath-8);
      }

      .cls-28 {
        clip-path: url(#clippath-18);
      }

      .cls-29 {
        clip-path: url(#clippath-14);
      }

      .cls-30 {
        clip-path: url(#clippath-17);
      }

      .cls-31 {
        clip-path: url(#clippath-5);
      }

      .cls-32 {
        clip-path: url(#clippath-10);
      }

      .cls-33 {
        clip-path: url(#clippath-23);
      }
    </style>
    <clipPath id="clippath">
      <ellipse class="cls-2" cx="197.78" cy="203.61" rx="194" ry="199.88" id="ellipse4"></ellipse>
    </clipPath>
    <clipPath id="clippath-1">
      <ellipse class="cls-2" cx="197.78" cy="203.61" rx="194" ry="199.88" id="ellipse7"></ellipse>
    </clipPath>
    <clipPath id="clippath-2">
      <ellipse class="cls-2" cx="197.78" cy="203.61" rx="194" ry="199.88" id="ellipse10"></ellipse>
    </clipPath>
    <clipPath id="clippath-3">
      <ellipse class="cls-2" cx="197.78" cy="203.61" rx="194" ry="199.88" id="ellipse13"></ellipse>
    </clipPath>
    <clipPath id="clippath-4">
      <ellipse class="cls-2" cx="197.78" cy="203.61" rx="194" ry="199.88" id="ellipse16"></ellipse>
    </clipPath>
    <clipPath id="clippath-5">
      <ellipse class="cls-2" cx="197.78" cy="203.61" rx="194" ry="199.88" id="ellipse19"></ellipse>
    </clipPath>
    <clipPath id="clippath-6">
      <ellipse class="cls-2" cx="197.78" cy="203.61" rx="194" ry="199.88" id="ellipse22"></ellipse>
    </clipPath>
    <clipPath id="clippath-7">
      <ellipse class="cls-2" cx="197.78" cy="203.61" rx="194" ry="199.88" id="ellipse25"></ellipse>
    </clipPath>
    <clipPath id="clippath-8">
      <ellipse class="cls-2" cx="197.78" cy="203.61" rx="194" ry="199.88" id="ellipse28"></ellipse>
    </clipPath>
    <clipPath id="clippath-9">
      <ellipse class="cls-2" cx="197.78" cy="203.61" rx="194" ry="199.88" id="ellipse31"></ellipse>
    </clipPath>
    <clipPath id="clippath-10">
      <ellipse class="cls-2" cx="197.78" cy="203.61" rx="194" ry="199.88" id="ellipse34"></ellipse>
    </clipPath>
    <clipPath id="clippath-11">
      <rect class="cls-2" x="-166.39999" y="-40.439999" width="960" height="540" id="rect37"></rect>
    </clipPath>
    <clipPath id="clippath-12">
      <ellipse class="cls-2" cx="197.78" cy="203.61" rx="194" ry="199.88" id="ellipse40"></ellipse>
    </clipPath>
    <clipPath id="clippath-13">
      <ellipse class="cls-2" cx="197.78" cy="203.61" rx="194" ry="199.88" id="ellipse43"></ellipse>
    </clipPath>
    <clipPath id="clippath-14">
      <ellipse class="cls-2" cx="197.78" cy="203.61" rx="194" ry="199.88" id="ellipse46"></ellipse>
    </clipPath>
    <clipPath id="clippath-15">
      <ellipse class="cls-2" cx="197.78" cy="203.61" rx="194" ry="199.88" id="ellipse49"></ellipse>
    </clipPath>
    <clipPath id="clippath-16">
      <ellipse class="cls-2" cx="197.78" cy="203.61" rx="194" ry="199.88" id="ellipse52"></ellipse>
    </clipPath>
    <clipPath id="clippath-17">
      <rect class="cls-2" x="-166.39999" y="-40.439999" width="960" height="540" id="rect55"></rect>
    </clipPath>
    <clipPath id="clippath-18">
      <ellipse class="cls-2" cx="197.78" cy="203.61" rx="194" ry="199.88" id="ellipse58"></ellipse>
    </clipPath>
    <clipPath id="clippath-19">
      <ellipse class="cls-2" cx="197.78" cy="203.61" rx="194" ry="199.88" id="ellipse61"></ellipse>
    </clipPath>
    <clipPath id="clippath-20">
      <ellipse class="cls-2" cx="197.78" cy="203.61" rx="194" ry="199.88" id="ellipse64"></ellipse>
    </clipPath>
    <clipPath id="clippath-21">
      <ellipse class="cls-2" cx="197.78" cy="203.61" rx="194" ry="199.88" id="ellipse67"></ellipse>
    </clipPath>
    <clipPath id="clippath-22">
      <ellipse class="cls-2" cx="197.78" cy="203.61" rx="194" ry="199.88" id="ellipse70"></ellipse>
    </clipPath>
    <clipPath id="clippath-23">
      <ellipse class="cls-2" cx="197.78" cy="203.61" rx="194" ry="199.88" id="ellipse73"></ellipse>
    </clipPath>
    <clipPath id="clippath-24">
      <ellipse class="cls-2" cx="197.78" cy="203.61" rx="194" ry="199.88" id="ellipse76"></ellipse>
    </clipPath>
    <clipPath id="clippath-24-2">
      <ellipse class="cls-2" cx="197.78" cy="203.61" rx="194" ry="199.88" id="ellipse76-3"></ellipse>
    </clipPath>
    <clipPath id="clippath-23-9">
      <ellipse class="cls-2" cx="197.78" cy="203.61" rx="194" ry="199.88" id="ellipse73-9"></ellipse>
    </clipPath>
    <clipPath id="clippath-22-7">
      <ellipse class="cls-2" cx="197.78" cy="203.61" rx="194" ry="199.88" id="ellipse70-0"></ellipse>
    </clipPath>
    <clipPath id="clippath-21-3">
      <ellipse class="cls-2" cx="197.78" cy="203.61" rx="194" ry="199.88" id="ellipse67-9"></ellipse>
    </clipPath>
    <clipPath id="clippath-20-8">
      <ellipse class="cls-2" cx="197.78" cy="203.61" rx="194" ry="199.88" id="ellipse64-6"></ellipse>
    </clipPath>
    <clipPath id="clippath-19-5">
      <ellipse class="cls-2" cx="197.78" cy="203.61" rx="194" ry="199.88" id="ellipse61-7"></ellipse>
    </clipPath>
    <clipPath id="clippath-18-6">
      <ellipse class="cls-2" cx="197.78" cy="203.61" rx="194" ry="199.88" id="ellipse58-2"></ellipse>
    </clipPath>
    <clipPath id="clippath-16-7">
      <ellipse class="cls-2" cx="197.78" cy="203.61" rx="194" ry="199.88" id="ellipse52-0"></ellipse>
    </clipPath>
    <clipPath id="clippath-17-3">
      <rect class="cls-2" x="-166.39999" y="-40.439999" width="960" height="540" id="rect55-9"></rect>
    </clipPath>
    <clipPath id="clippath-15-9">
      <ellipse class="cls-2" cx="197.78" cy="203.61" rx="194" ry="199.88" id="ellipse49-9"></ellipse>
    </clipPath>
    <clipPath id="clippath-14-1">
      <ellipse class="cls-2" cx="197.78" cy="203.61" rx="194" ry="199.88" id="ellipse46-7"></ellipse>
    </clipPath>
    <clipPath id="clippath-13-2">
      <ellipse class="cls-2" cx="197.78" cy="203.61" rx="194" ry="199.88" id="ellipse43-3"></ellipse>
    </clipPath>
    <clipPath id="clippath-12-6">
      <ellipse class="cls-2" cx="197.78" cy="203.61" rx="194" ry="199.88" id="ellipse40-5"></ellipse>
    </clipPath>
    <clipPath id="clippath-10-5">
      <ellipse class="cls-2" cx="197.78" cy="203.61" rx="194" ry="199.88" id="ellipse34-8"></ellipse>
    </clipPath>
    <clipPath id="clippath-11-1">
      <rect class="cls-2" x="-166.39999" y="-40.439999" width="960" height="540" id="rect37-4"></rect>
    </clipPath>
    <clipPath id="clippath-9-7">
      <ellipse class="cls-2" cx="197.78" cy="203.61" rx="194" ry="199.88" id="ellipse31-1"></ellipse>
    </clipPath>
    <clipPath id="clippath-8-3">
      <ellipse class="cls-2" cx="197.78" cy="203.61" rx="194" ry="199.88" id="ellipse28-8"></ellipse>
    </clipPath>
    <clipPath id="clippath-7-4">
      <ellipse class="cls-2" cx="197.78" cy="203.61" rx="194" ry="199.88" id="ellipse25-8"></ellipse>
    </clipPath>
    <clipPath id="clippath-6-0">
      <ellipse class="cls-2" cx="197.78" cy="203.61" rx="194" ry="199.88" id="ellipse22-4"></ellipse>
    </clipPath>
    <clipPath id="clippath-5-6">
      <ellipse class="cls-2" cx="197.78" cy="203.61" rx="194" ry="199.88" id="ellipse19-0"></ellipse>
    </clipPath>
    <clipPath id="clippath-4-3">
      <ellipse class="cls-2" cx="197.78" cy="203.61" rx="194" ry="199.88" id="ellipse16-2"></ellipse>
    </clipPath>
    <clipPath id="clippath-3-6">
      <ellipse class="cls-2" cx="197.78" cy="203.61" rx="194" ry="199.88" id="ellipse13-9"></ellipse>
    </clipPath>
    <clipPath id="clippath-2-4">
      <ellipse class="cls-2" cx="197.78" cy="203.61" rx="194" ry="199.88" id="ellipse10-1"></ellipse>
    </clipPath>
    <clipPath id="clippath-1-3">
      <ellipse class="cls-2" cx="197.78" cy="203.61" rx="194" ry="199.88" id="ellipse7-7"></ellipse>
    </clipPath>
    <clipPath id="clippath-88">
      <ellipse class="cls-2" cx="197.78" cy="203.61" rx="194" ry="199.88" id="ellipse4-3"></ellipse>
    </clipPath>
  <clipPath id="SvgjsClipPath1289"><rect width="1000" height="1000" x="0" y="0" rx="250" ry="250"></rect></clipPath></defs>
  <g id="layer1" transform="translate(1.9991124,-4.0441005)">
    <ellipse id="path2275-5" class="cls-8" cx="198.00502" cy="204.0499" rx="197.89575" ry="197.89641"></ellipse>
    <g class="cls-24" clip-path="url(#clippath)" id="g84" transform="matrix(1.0097236,0,0,0.98002482,-2.0313076,4.0758164)">
      <g id="g1178">
        <path id="path1180" class="cls-1" d="M 31.6,303.36 V 174.8 L 80,150.82 128.4,174.8 v 128.56 z"></path>
      </g>
    </g>
    <g class="cls-18" clip-path="url(#clippath-1)" id="g88" transform="matrix(1.0097236,0,0,0.98002482,-2.0313076,4.0758164)">
      <g id="g1182">
        <path id="path1184" class="cls-15" d="M 31.6,303.36 V 174.8 L 80,150.82 128.4,174.8 v 128.56 z"></path>
      </g>
    </g>
    <g class="cls-11" clip-path="url(#clippath-2)" id="g92" transform="matrix(1.0097236,0,0,0.98002482,-2.0313076,4.0758164)">
      <g id="g1186">
        <path id="path1188" class="cls-1" d="M 215.45,339.55 113.83,222.25 H 46.49 l -101.63,117.3 z"></path>
      </g>
    </g>
    <g class="cls-26" clip-path="url(#clippath-3)" id="g96" transform="matrix(1.0097236,0,0,0.98002482,-2.0313076,4.0758164)">
      <g id="g1190">
        <path id="path1192" class="cls-15" d="M 215.45,339.55 113.83,222.25 H 46.49 l -101.63,117.3 z"></path>
      </g>
    </g>
    <g class="cls-19" clip-path="url(#clippath-4)" id="g100" transform="matrix(1.0097236,0,0,0.98002482,-2.0313076,4.0758164)">
      <g id="g1194">
        <path id="path1196" class="cls-1" d="M 178.4,339.59 112.53,233.79 H 45.87 L -20,339.59 h 198.39 z"></path>
      </g>
    </g>
    <g class="cls-31" clip-path="url(#clippath-5)" id="g104" transform="matrix(1.0097236,0,0,0.98002482,-2.0313076,4.0758164)">
      <g id="g1198">
        <path id="path1200" class="cls-15" d="M 178.4,339.59 112.53,233.79 H 45.87 L -20,339.59 h 198.39 z"></path>
      </g>
    </g>
    <g class="cls-14" clip-path="url(#clippath-6)" id="g108" transform="matrix(1.0097236,0,0,0.98002482,-2.0313076,4.0758164)">
      <g id="g1202">
        <path id="path1204" class="cls-1" d="M 150.22,340.65 113.98,243.42 H 44.64 L 8.4,340.65 h 141.83 z"></path>
      </g>
    </g>
    <g class="cls-16" clip-path="url(#clippath-7)" id="g112" transform="matrix(1.0097236,0,0,0.98002482,-2.0313076,4.0758164)">
      <g id="g1206">
        <path id="path1208" class="cls-15" d="M 150.22,340.65 113.98,243.42 H 44.64 L 8.4,340.65 h 141.83 z"></path>
      </g>
    </g>
    <g class="cls-27" clip-path="url(#clippath-8)" id="g116" transform="matrix(1.0097236,0,0,0.98002482,-2.0313076,4.0758164)">
      <g id="g1210">
        <path id="path1212" class="cls-1" d="M 121.53,341.63 104.67,150.87 H 54.9 L 38.03,341.63 Z"></path>
      </g>
    </g>
    <g class="cls-23" clip-path="url(#clippath-9)" id="g120" transform="matrix(1.0097236,0,0,0.98002482,-2.0313076,4.0758164)">
      <g id="g1214">
        <path id="path1216" class="cls-15" d="M 121.53,341.63 104.67,150.87 H 54.9 L 38.03,341.63 Z"></path>
      </g>
    </g>
    <g class="cls-32" clip-path="url(#clippath-10)" id="g130" transform="matrix(1.0097236,0,0,0.98002482,-2.0313076,4.0758164)">
      <g id="g1218">
        <g class="cls-6" clip-path="url(#clippath-11)" id="g127">
          <g id="g1220">
            <g id="g1226">
              <path id="path1228" class="cls-1" d="m 141.33,70.42 c -0.15,-9.63 10.51,-17.53 23.8,-17.64 13.07,-0.1 23.86,7.37 24.32,16.84 l -24.05,0.61 z"></path>
            </g>
            <g id="g1230">
              <path id="path1232" class="cls-15" d="m 141.33,70.42 c -0.15,-9.63 10.51,-17.53 23.8,-17.64 13.07,-0.1 23.86,7.37 24.32,16.84 l -24.05,0.61 z"></path>
            </g>
          </g>
        </g>
      </g>
    </g>
    <g class="cls-20" clip-path="url(#clippath-12)" id="g134" transform="matrix(1.0097236,0,0,0.98002482,-2.0313076,4.0758164)">
      <g id="g1234">
        <path id="path1236" class="cls-1" d="m 208.15,95.71 -27.11,30.74 H 149.76 L 122.64,95.71 Z"></path>
      </g>
    </g>
    <g class="cls-12" clip-path="url(#clippath-13)" id="g138" transform="matrix(1.0097236,0,0,0.98002482,-2.0313076,4.0758164)">
      <g id="g1238">
        <path id="path1240" class="cls-15" d="m 208.15,95.71 -27.11,30.74 H 149.76 L 122.64,95.71 Z"></path>
      </g>
    </g>
    <g class="cls-29" clip-path="url(#clippath-14)" id="g142" transform="matrix(1.0097236,0,0,0.98002482,-2.0313076,4.0758164)">
      <g id="g1242">
        <path id="path1244" class="cls-1" d="M 197.7,344.14 179.19,130.35 H 151.7 l -18.51,213.79 z"></path>
      </g>
    </g>
    <g class="cls-13" clip-path="url(#clippath-15)" id="g146" transform="matrix(1.0097236,0,0,0.98002482,-2.0313076,4.0758164)">
      <g id="g1246">
        <path id="path1248" class="cls-15" d="M 197.7,344.14 179.19,130.35 H 151.7 l -18.51,213.79 z"></path>
      </g>
    </g>
    <g class="cls-7" clip-path="url(#clippath-16)" id="g154" transform="matrix(1.0097236,0,0,0.98002482,-2.0313076,4.0758164)">
      <g id="g1250">
        <g class="cls-30" clip-path="url(#clippath-17)" id="g151">
          <g id="g1252">
            <g id="g1258">
              <path id="path1260" class="cls-9" d="M 165.39,52.78 164.78,-48.36"></path>
            </g>
          </g>
        </g>
      </g>
    </g>
    <g class="cls-28" clip-path="url(#clippath-18)" id="g158" transform="matrix(1.0097236,0,0,0.98002482,-2.0313076,4.0758164)">
      <g id="g1262">
        <path id="path1264" class="cls-1" d="m 127.4,92.02 8.44,-18.01 h 58.36 l 8.44,18.01 z"></path>
      </g>
    </g>
    <g class="cls-25" clip-path="url(#clippath-19)" id="g162" transform="matrix(1.0097236,0,0,0.98002482,-2.0313076,4.0758164)">
      <g id="g1266">
        <path id="path1268" class="cls-15" d="m 127.4,92.02 8.44,-18.01 h 58.36 l 8.44,18.01 z"></path>
      </g>
    </g>
    <g class="cls-5" clip-path="url(#clippath-20)" id="g166" transform="matrix(1.0097236,0,0,0.98002482,-2.0313076,4.0758164)">
      <g id="text1272">
        <path id="path6121" class="cls-4" d="m 256.55,265.4 v 67.03 c 0,1.25 0.31,2.19 0.94,2.81 0.94,0.63 2.03,0.94 3.28,0.94 h 2.34 v 2.81 h -20.62 v -2.81 h 2.34 c 1.56,0 2.66,-0.31 3.28,-0.94 0.62,-0.63 0.94,-1.56 0.94,-2.81 v -34.22 h -27.66 v 34.22 c 0,1.25 0.31,2.19 0.94,2.81 0.94,0.63 2.03,0.94 3.28,0.94 h 2.34 v 2.81 h -20.62 v -2.81 h 2.34 c 1.56,0 2.66,-0.31 3.28,-0.94 0.62,-0.63 0.94,-1.56 0.94,-2.81 V 265.4 c 0,-1.25 -0.31,-2.19 -0.94,-2.81 -0.63,-0.63 -1.72,-0.94 -3.28,-0.94 h -1.88 v -2.81 h 19.69 v 2.81 h -1.88 c -1.25,0 -2.34,0.31 -3.28,0.94 -0.62,0.63 -0.94,1.56 -0.94,2.81 v 30 h 27.66 v -30 c 0,-1.25 -0.31,-2.19 -0.94,-2.81 -0.63,-0.63 -1.72,-0.94 -3.28,-0.94 h -1.88 v -2.81 h 19.69 v 2.81 h -1.87 c -1.25,0 -2.34,0.31 -3.28,0.94 -0.63,0.63 -0.94,1.56 -0.94,2.81 z"></path>
      </g>
    </g>
    <g class="cls-17" clip-path="url(#clippath-21)" id="g171" transform="matrix(1.0097236,0,0,0.98002482,-2.0313076,4.0758164)">
      <g id="text1276">
        <path id="path6142" class="cls-4" d="m 281.3,334.58 c 2.25,1.75 5.12,2.62 8.63,2.62 3.75,0 6.88,-1.25 9.38,-3.75 2.75,-2.5 4.13,-5.62 4.13,-9.38 v -43.5 c 0,-1 -0.25,-1.75 -0.75,-2.25 -0.5,-0.5 -1.38,-0.75 -2.62,-0.75 h -2.25 v -2.25 h 13.5 v 2.25 h -2.25 c -1,0 -1.88,0.25 -2.62,0.75 -0.5,0.5 -0.75,1.25 -0.75,2.25 v 43.5 c 0,5 -1.75,9 -5.25,12 -3.25,2.75 -7,4.13 -11.25,4.13 -4.5,0 -8.5,-1.25 -12,-3.75 -3.25,-2.5 -4.88,-6.5 -4.88,-12 v -43.88 c 0,-1 -0.25,-1.75 -0.75,-2.25 -0.5,-0.5 -1.38,-0.75 -2.62,-0.75 h -1.87 v -2.25 h 16.5 v 2.25 h -1.87 c -1,0 -1.88,0.25 -2.62,0.75 -0.5,0.5 -0.75,1.25 -0.75,2.25 v 43.88 c 0,5 1,8.37 3,10.13 v 0 z"></path>
        <path id="path6144" class="cls-4" d="m 338.68,339.46 h -23.63 v -2.25 h 3 c 1.25,0 2.12,-0.25 2.62,-0.75 0.5,-0.5 0.75,-1.25 0.75,-2.25 v -53.63 c 0,-1 -0.25,-1.75 -0.75,-2.25 -0.5,-0.5 -1.38,-0.75 -2.62,-0.75 h -2.25 v -2.25 h 21.75 c 6,0 10.38,1.25 13.12,3.75 3,2.25 4.5,5.88 4.5,10.87 0,3.5 -0.75,6.38 -2.25,8.63 -1.5,2.25 -4.62,4.25 -9.38,6 5.75,1.75 9.63,4.25 11.63,7.5 2,3.25 3,6.88 3,10.87 0,5 -1.75,9 -5.25,12 -3.5,3 -8.25,4.5 -14.25,4.5 v 0 z m -7.88,-2.25 h 6.75 c 4.25,0 7.5,-1.25 9.75,-3.75 2.5,-2.75 3.75,-6.5 3.75,-11.25 0,-5.5 -1.25,-9.5 -3.75,-12 -2.5,-2.75 -6.25,-4.13 -11.25,-4.13 h -8.63 v 28.12 c 0,1 0.25,1.75 0.75,2.25 0.75,0.5 1.63,0.75 2.63,0.75 v 0 z m 14.25,-36.75 c 2.5,-2.25 3.75,-5.75 3.75,-10.5 0,-4.5 -1.25,-7.62 -3.75,-9.38 -2.5,-2 -5.75,-3 -9.75,-3 h -4.5 c -1,0 -1.88,0.25 -2.63,0.75 -0.5,0.5 -0.75,1.25 -0.75,2.25 v 23.25 h 9.75 c 2.75,0 5.37,-1.13 7.88,-3.38 z"></path>
      </g>
    </g>
    <g class="cls-22" clip-path="url(#clippath-22)" id="g175" transform="matrix(1.0097236,0,0,0.98002482,-2.0313076,4.0758164)">
      <g id="g1278">
        <path id="path1280" class="cls-10" d="M -55.6,341.92 H 407.66"></path>
      </g>
    </g>
    <g class="cls-33" clip-path="url(#clippath-23)" id="g179" transform="matrix(1.0097236,0,0,0.98002482,-2.0313076,4.0758164)">
      <g id="text1284">
        <path id="path2633" class="cls-3" d="m 105.02,324.78 -7.89,-34.71 h -35.5 l -7.1,29.98 c -1.05,4.73 -1.05,8.68 0,11.83 1.05,2.63 3.42,3.94 7.1,3.94 H 64 v 4.73 H 34.81 v -4.73 h 2.37 c 2.1,0 3.94,-0.53 5.52,-1.58 1.58,-1.58 2.63,-3.94 3.16,-7.1 l 30.77,-120.7 11.83,-3.94 29.98,124.65 c 1.05,3.16 2.37,5.52 3.94,7.1 1.58,1.05 3.42,1.58 5.52,1.58 h 2.37 v 4.73 H 96.35 v -4.73 h 3.16 c 3.16,0 5,-0.79 5.52,-2.37 1.05,-2.1 1.05,-5 0,-8.68 v 0 z M 96.34,285.33 80.56,219.85 H 79.77 L 63.2,285.33 h 33.13 z"></path>
      </g>
    </g>
    <g class="cls-21" clip-path="url(#clippath-24)" id="g183" transform="matrix(1.0097236,0,0,0.98002482,-2.0313076,4.0758164)">
      <g id="text1288">
        <path id="path3982" class="cls-3" d="m 152.73,210.57 h -17.97 v -4.69 h 62.51 v 4.69 H 179.3 c -2.08,0 -3.91,0.52 -5.47,1.56 -1.04,1.04 -1.56,2.6 -1.56,4.69 v 111.74 c 0,2.08 0.52,3.65 1.56,4.69 1.56,1.04 3.39,1.56 5.47,1.56 h 17.97 v 4.69 h -62.51 v -4.69 h 17.97 c 2.6,0 4.43,-0.52 5.47,-1.56 1.04,-1.04 1.56,-2.6 1.56,-4.69 V 216.82 c 0,-2.08 -0.52,-3.65 -1.56,-4.69 -1.04,-1.04 -2.87,-1.56 -5.47,-1.56 z"></path>
      </g>
    </g>
    <ellipse id="path2275-5-8" class="cls-8" cx="198.00056" cy="204.04443" rx="197.89575" ry="197.89641" style="fill:#ffffff;stroke:#0baedd;stroke-width:4.20785px;stroke-miterlimit:11.34"></ellipse>
    <g class="cls-24" clip-path="url(#clippath)" id="g84-1" transform="matrix(1.0097236,0,0,0.98002482,-2.0357783,4.0703573)">
      <g id="g1178-5">
        <path id="path1180-3" class="cls-1" d="M 31.6,303.36 V 174.8 L 80,150.82 128.4,174.8 v 128.56 z" style="fill:#0baedd;fill-rule:evenodd;stroke-width:0px"></path>
      </g>
    </g>
    <g class="cls-18" clip-path="url(#clippath-1)" id="g88-5" transform="matrix(1.0097236,0,0,0.98002482,-2.0357783,4.0703573)">
      <g id="g1182-4">
        <path id="path1184-3" class="cls-15" d="M 31.6,303.36 V 174.8 L 80,150.82 128.4,174.8 v 128.56 z" style="fill:none;stroke:#ffffff;stroke-width:1.5px;stroke-miterlimit:8"></path>
      </g>
    </g>
    <g class="cls-11" clip-path="url(#clippath-2)" id="g92-6" transform="matrix(1.0097236,0,0,0.98002482,-2.0357783,4.0703573)">
      <g id="g1186-5">
        <path id="path1188-9" class="cls-1" d="M 215.45,339.55 113.83,222.25 H 46.49 l -101.63,117.3 z" style="fill:#0baedd;fill-rule:evenodd;stroke-width:0px"></path>
      </g>
    </g>
    <g class="cls-26" clip-path="url(#clippath-3)" id="g96-5" transform="matrix(1.0097236,0,0,0.98002482,-2.0357783,4.0703573)">
      <g id="g1190-4">
        <path id="path1192-9" class="cls-15" d="M 215.45,339.55 113.83,222.25 H 46.49 l -101.63,117.3 z" style="fill:none;stroke:#ffffff;stroke-width:1.5px;stroke-miterlimit:8"></path>
      </g>
    </g>
    <g class="cls-19" clip-path="url(#clippath-4)" id="g100-1" transform="matrix(1.0097236,0,0,0.98002482,-2.0357783,4.0703573)">
      <g id="g1194-7">
        <path id="path1196-5" class="cls-1" d="M 178.4,339.59 112.53,233.79 H 45.87 L -20,339.59 h 198.39 z" style="fill:#0baedd;fill-rule:evenodd;stroke-width:0px"></path>
      </g>
    </g>
    <g class="cls-31" clip-path="url(#clippath-5)" id="g104-5" transform="matrix(1.0097236,0,0,0.98002482,-2.0357783,4.0703573)">
      <g id="g1198-4">
        <path id="path1200-1" class="cls-15" d="M 178.4,339.59 112.53,233.79 H 45.87 L -20,339.59 h 198.39 z" style="fill:none;stroke:#ffffff;stroke-width:1.5px;stroke-miterlimit:8"></path>
      </g>
    </g>
    <g class="cls-14" clip-path="url(#clippath-6)" id="g108-8" transform="matrix(1.0097236,0,0,0.98002482,-2.0357783,4.0703573)">
      <g id="g1202-8">
        <path id="path1204-3" class="cls-1" d="M 150.22,340.65 113.98,243.42 H 44.64 L 8.4,340.65 h 141.83 z" style="fill:#0baedd;fill-rule:evenodd;stroke-width:0px"></path>
      </g>
    </g>
    <g class="cls-16" clip-path="url(#clippath-7)" id="g112-5" transform="matrix(1.0097236,0,0,0.98002482,-2.0357783,4.0703573)">
      <g id="g1206-2">
        <path id="path1208-2" class="cls-15" d="M 150.22,340.65 113.98,243.42 H 44.64 L 8.4,340.65 h 141.83 z" style="fill:none;stroke:#ffffff;stroke-width:1.5px;stroke-miterlimit:8"></path>
      </g>
    </g>
    <g class="cls-27" clip-path="url(#clippath-8)" id="g116-6" transform="matrix(1.0097236,0,0,0.98002482,-2.0357783,4.0703573)">
      <g id="g1210-6">
        <path id="path1212-7" class="cls-1" d="M 121.53,341.63 104.67,150.87 H 54.9 L 38.03,341.63 Z" style="fill:#0baedd;fill-rule:evenodd;stroke-width:0px"></path>
      </g>
    </g>
    <g class="cls-23" clip-path="url(#clippath-9)" id="g120-8" transform="matrix(1.0097236,0,0,0.98002482,-2.0357783,4.0703573)">
      <g id="g1214-4">
        <path id="path1216-1" class="cls-15" d="M 121.53,341.63 104.67,150.87 H 54.9 L 38.03,341.63 Z" style="fill:none;stroke:#ffffff;stroke-width:1.5px;stroke-miterlimit:8"></path>
      </g>
    </g>
    <g class="cls-32" clip-path="url(#clippath-10)" id="g130-7" transform="matrix(1.0097236,0,0,0.98002482,-2.0357783,4.0703573)">
      <g id="g1218-1">
        <g class="cls-6" clip-path="url(#clippath-11)" id="g127-8">
          <g id="g1220-7">
            <g id="g1226-8">
              <path id="path1228-7" class="cls-1" d="m 141.33,70.42 c -0.15,-9.63 10.51,-17.53 23.8,-17.64 13.07,-0.1 23.86,7.37 24.32,16.84 l -24.05,0.61 z" style="fill:#0baedd;fill-rule:evenodd;stroke-width:0px"></path>
            </g>
            <g id="g1230-7">
              <path id="path1232-4" class="cls-15" d="m 141.33,70.42 c -0.15,-9.63 10.51,-17.53 23.8,-17.64 13.07,-0.1 23.86,7.37 24.32,16.84 l -24.05,0.61 z" style="fill:none;stroke:#ffffff;stroke-width:1.5px;stroke-miterlimit:8"></path>
            </g>
          </g>
        </g>
      </g>
    </g>
    <g class="cls-20" clip-path="url(#clippath-12)" id="g134-4" transform="matrix(1.0097236,0,0,0.98002482,-2.0357783,4.0703573)">
      <g id="g1234-9">
        <path id="path1236-1" class="cls-1" d="m 208.15,95.71 -27.11,30.74 H 149.76 L 122.64,95.71 Z" style="fill:#0baedd;fill-rule:evenodd;stroke-width:0px"></path>
      </g>
    </g>
    <g class="cls-12" clip-path="url(#clippath-13)" id="g138-5" transform="matrix(1.0097236,0,0,0.98002482,-2.0357783,4.0703573)">
      <g id="g1238-5">
        <path id="path1240-5" class="cls-15" d="m 208.15,95.71 -27.11,30.74 H 149.76 L 122.64,95.71 Z" style="fill:none;stroke:#ffffff;stroke-width:1.5px;stroke-miterlimit:8"></path>
      </g>
    </g>
    <g class="cls-29" clip-path="url(#clippath-14)" id="g142-8" transform="matrix(1.0097236,0,0,0.98002482,-2.0357783,4.0703573)">
      <g id="g1242-2">
        <path id="path1244-9" class="cls-1" d="M 197.7,344.14 179.19,130.35 H 151.7 l -18.51,213.79 z" style="fill:#0baedd;fill-rule:evenodd;stroke-width:0px"></path>
      </g>
    </g>
    <g class="cls-13" clip-path="url(#clippath-15)" id="g146-8" transform="matrix(1.0097236,0,0,0.98002482,-2.0357783,4.0703573)">
      <g id="g1246-2">
        <path id="path1248-0" class="cls-15" d="M 197.7,344.14 179.19,130.35 H 151.7 l -18.51,213.79 z" style="fill:none;stroke:#ffffff;stroke-width:1.5px;stroke-miterlimit:8"></path>
      </g>
    </g>
    <g class="cls-7" clip-path="url(#clippath-16)" id="g154-7" transform="matrix(1.0097236,0,0,0.98002482,-2.0357783,4.0703573)">
      <g id="g1250-4">
        <g class="cls-30" clip-path="url(#clippath-17)" id="g151-8">
          <g id="g1252-5">
            <g id="g1258-8">
              <path id="path1260-3" class="cls-9" d="M 165.39,52.78 164.78,-48.36" style="fill:none;stroke:#0baedd;stroke-width:3px;stroke-miterlimit:8"></path>
            </g>
          </g>
        </g>
      </g>
    </g>
    <g class="cls-28" clip-path="url(#clippath-18)" id="g158-0" transform="matrix(1.0097236,0,0,0.98002482,-2.0357783,4.0703573)">
      <g id="g1262-6">
        <path id="path1264-2" class="cls-1" d="m 127.4,92.02 8.44,-18.01 h 58.36 l 8.44,18.01 z" style="fill:#0baedd;fill-rule:evenodd;stroke-width:0px"></path>
      </g>
    </g>
    <g class="cls-25" clip-path="url(#clippath-19)" id="g162-2" transform="matrix(1.0097236,0,0,0.98002482,-2.0357783,4.0703573)">
      <g id="g1266-5">
        <path id="path1268-2" class="cls-15" d="m 127.4,92.02 8.44,-18.01 h 58.36 l 8.44,18.01 z" style="fill:none;stroke:#ffffff;stroke-width:1.5px;stroke-miterlimit:8"></path>
      </g>
    </g>
    <g class="cls-5" clip-path="url(#clippath-20)" id="g166-2" transform="matrix(1.0097236,0,0,0.98002482,-2.0357783,4.0703573)">
      <g id="text1272-7">
        <path id="path6121-1" class="cls-4" d="m 256.55,265.4 v 67.03 c 0,1.25 0.31,2.19 0.94,2.81 0.94,0.63 2.03,0.94 3.28,0.94 h 2.34 v 2.81 h -20.62 v -2.81 h 2.34 c 1.56,0 2.66,-0.31 3.28,-0.94 0.62,-0.63 0.94,-1.56 0.94,-2.81 v -34.22 h -27.66 v 34.22 c 0,1.25 0.31,2.19 0.94,2.81 0.94,0.63 2.03,0.94 3.28,0.94 h 2.34 v 2.81 h -20.62 v -2.81 h 2.34 c 1.56,0 2.66,-0.31 3.28,-0.94 0.62,-0.63 0.94,-1.56 0.94,-2.81 V 265.4 c 0,-1.25 -0.31,-2.19 -0.94,-2.81 -0.63,-0.63 -1.72,-0.94 -3.28,-0.94 h -1.88 v -2.81 h 19.69 v 2.81 h -1.88 c -1.25,0 -2.34,0.31 -3.28,0.94 -0.62,0.63 -0.94,1.56 -0.94,2.81 v 30 h 27.66 v -30 c 0,-1.25 -0.31,-2.19 -0.94,-2.81 -0.63,-0.63 -1.72,-0.94 -3.28,-0.94 h -1.88 v -2.81 h 19.69 v 2.81 h -1.87 c -1.25,0 -2.34,0.31 -3.28,0.94 -0.63,0.63 -0.94,1.56 -0.94,2.81 z" style="fill:#0baedd;stroke-width:0px"></path>
      </g>
    </g>
    <g class="cls-17" clip-path="url(#clippath-21)" id="g171-5" transform="matrix(1.0097236,0,0,0.98002482,-2.0357783,4.0703573)">
      <g id="text1276-2">
        <path id="path6142-1" class="cls-4" d="m 281.3,334.58 c 2.25,1.75 5.12,2.62 8.63,2.62 3.75,0 6.88,-1.25 9.38,-3.75 2.75,-2.5 4.13,-5.62 4.13,-9.38 v -43.5 c 0,-1 -0.25,-1.75 -0.75,-2.25 -0.5,-0.5 -1.38,-0.75 -2.62,-0.75 h -2.25 v -2.25 h 13.5 v 2.25 h -2.25 c -1,0 -1.88,0.25 -2.62,0.75 -0.5,0.5 -0.75,1.25 -0.75,2.25 v 43.5 c 0,5 -1.75,9 -5.25,12 -3.25,2.75 -7,4.13 -11.25,4.13 -4.5,0 -8.5,-1.25 -12,-3.75 -3.25,-2.5 -4.88,-6.5 -4.88,-12 v -43.88 c 0,-1 -0.25,-1.75 -0.75,-2.25 -0.5,-0.5 -1.38,-0.75 -2.62,-0.75 h -1.87 v -2.25 h 16.5 v 2.25 h -1.87 c -1,0 -1.88,0.25 -2.62,0.75 -0.5,0.5 -0.75,1.25 -0.75,2.25 v 43.88 c 0,5 1,8.37 3,10.13 v 0 z" style="fill:#0baedd;stroke-width:0px"></path>
        <path id="path6144-1" class="cls-4" d="m 338.68,339.46 h -23.63 v -2.25 h 3 c 1.25,0 2.12,-0.25 2.62,-0.75 0.5,-0.5 0.75,-1.25 0.75,-2.25 v -53.63 c 0,-1 -0.25,-1.75 -0.75,-2.25 -0.5,-0.5 -1.38,-0.75 -2.62,-0.75 h -2.25 v -2.25 h 21.75 c 6,0 10.38,1.25 13.12,3.75 3,2.25 4.5,5.88 4.5,10.87 0,3.5 -0.75,6.38 -2.25,8.63 -1.5,2.25 -4.62,4.25 -9.38,6 5.75,1.75 9.63,4.25 11.63,7.5 2,3.25 3,6.88 3,10.87 0,5 -1.75,9 -5.25,12 -3.5,3 -8.25,4.5 -14.25,4.5 v 0 z m -7.88,-2.25 h 6.75 c 4.25,0 7.5,-1.25 9.75,-3.75 2.5,-2.75 3.75,-6.5 3.75,-11.25 0,-5.5 -1.25,-9.5 -3.75,-12 -2.5,-2.75 -6.25,-4.13 -11.25,-4.13 h -8.63 v 28.12 c 0,1 0.25,1.75 0.75,2.25 0.75,0.5 1.63,0.75 2.63,0.75 v 0 z m 14.25,-36.75 c 2.5,-2.25 3.75,-5.75 3.75,-10.5 0,-4.5 -1.25,-7.62 -3.75,-9.38 -2.5,-2 -5.75,-3 -9.75,-3 h -4.5 c -1,0 -1.88,0.25 -2.63,0.75 -0.5,0.5 -0.75,1.25 -0.75,2.25 v 23.25 h 9.75 c 2.75,0 5.37,-1.13 7.88,-3.38 z" style="fill:#0baedd;stroke-width:0px"></path>
      </g>
    </g>
    <g class="cls-22" clip-path="url(#clippath-22)" id="g175-0" transform="matrix(1.0097236,0,0,0.98002482,-2.0357783,4.0703573)">
      <g id="g1278-1">
        <path id="path1280-8" class="cls-10" d="M -55.6,341.92 H 407.66" style="fill:none;stroke:#0baedd;stroke-width:4.5px;stroke-miterlimit:8"></path>
      </g>
    </g>
    <g class="cls-33" clip-path="url(#clippath-23)" id="g179-7" transform="matrix(1.0097236,0,0,0.98002482,-2.0357783,4.0703573)">
      <g id="text1284-6">
        <path id="path2633-0" class="cls-3" d="m 105.02,324.78 -7.89,-34.71 h -35.5 l -7.1,29.98 c -1.05,4.73 -1.05,8.68 0,11.83 1.05,2.63 3.42,3.94 7.1,3.94 H 64 v 4.73 H 34.81 v -4.73 h 2.37 c 2.1,0 3.94,-0.53 5.52,-1.58 1.58,-1.58 2.63,-3.94 3.16,-7.1 l 30.77,-120.7 11.83,-3.94 29.98,124.65 c 1.05,3.16 2.37,5.52 3.94,7.1 1.58,1.05 3.42,1.58 5.52,1.58 h 2.37 v 4.73 H 96.35 v -4.73 h 3.16 c 3.16,0 5,-0.79 5.52,-2.37 1.05,-2.1 1.05,-5 0,-8.68 v 0 z M 96.34,285.33 80.56,219.85 H 79.77 L 63.2,285.33 h 33.13 z" style="fill:#ffffff;stroke-width:0px"></path>
      </g>
    </g>
    <g class="cls-21" clip-path="url(#clippath-24)" id="g183-0" transform="matrix(1.0097236,0,0,0.98002482,-2.0357783,4.0703573)">
      <g id="text1288-9">
        <path id="path3982-5" class="cls-3" d="m 152.73,210.57 h -17.97 v -4.69 h 62.51 v 4.69 H 179.3 c -2.08,0 -3.91,0.52 -5.47,1.56 -1.04,1.04 -1.56,2.6 -1.56,4.69 v 111.74 c 0,2.08 0.52,3.65 1.56,4.69 1.56,1.04 3.39,1.56 5.47,1.56 h 17.97 v 4.69 h -62.51 v -4.69 h 17.97 c 2.6,0 4.43,-0.52 5.47,-1.56 1.04,-1.04 1.56,-2.6 1.56,-4.69 V 216.82 c 0,-2.08 -0.52,-3.65 -1.56,-4.69 -1.04,-1.04 -2.87,-1.56 -5.47,-1.56 z" style="fill:#ffffff;stroke-width:0px"></path>
      </g>
    </g>
  </g>
</svg></svg></g></g></svg>